<svg width="142" height="142" viewBox="0 0 142 142" fill="none" xmlns="http://www.w3.org/2000/svg">
<path d="M53.7333 3.33333C23.2 11.6 1.33333 39.7333 1.33333 70.6667C1.33333 101.733 23.2 130 53.4667 138C69.2 142.267 89.2 139.733 104.133 131.867C113.067 127.067 125.733 114.667 131.067 105.733C140.133 89.8667 142.667 67.7333 137.333 50.4C130.4 28 110.8 9.33333 87.8667 3.33333C78.8 0.933334 62.8 0.933334 53.7333 3.33333ZM32.4 33.0667C28.5333 33.6 26.4 36.5333 26.9333 40.2667C27.4667 44.1333 31.7333 44.9333 37.2 42C40.4 40.4 41.3333 38.9333 41.6 35.6L41.7333 31.3333L42.2667 35.6L42.8 39.8667L49.3333 35.8667C61.8667 28.1333 68.6667 30.9333 68.6667 43.8667C68.6667 50.1333 68 52.4 65.0667 56.4C62.9333 58.9333 61.3333 61.8667 61.3333 62.8C61.3333 63.7333 61.0667 64.1333 60.6667 63.7333C60.2667 63.3333 56 67.0667 51.3333 72L42.6667 80.9333V92.6667C42.6667 103.6 42.8 104.267 44.8 101.867C46.8 99.4667 46.8 99.4667 46 103.333C44.6667 109.333 42.8 110.8 37.4667 110.4C33.8667 110.133 32.1333 108.933 29.7333 105.467C23.8667 96.6667 26.5333 83.8667 36.5333 72.6667C41.7333 66.9333 42.8 60.9333 39.2 58.9333C37.3333 57.8667 37.3333 57.6 39.2 56.1333C42.6667 53.2 41.6 51.0667 36.4 50C26.5333 48.1333 21.6 43.2 22.9333 36.5333C23.4667 33.3333 28.8 30.8 32.4 31.7333L35.3333 32.6667L32.4 33.0667ZM87.4667 32.2667C88.1333 33.2 87.8667 33.3333 86.8 32.6667C84.9333 31.6 78.6667 36.8 78.6667 39.4667C78.6667 40.2667 79.6 41.7333 80.6667 42.6667C83.4667 44.9333 92.4 42.2667 96.8 38C98.5333 36.2667 100 35.3333 100 35.8667C100 36.5333 102.8 35.6 106.267 33.8667C114 29.8667 117.867 29.8667 121.6 33.6L124.667 36.6667L119.733 37.4667C117.067 37.8667 111.467 40.2667 107.467 42.6667C100.8 46.8 100 47.7333 100 51.7333V56.2667L107.067 52.2667C110.8 50.1333 115.333 46.5333 116.8 44.2667C119.067 40.9333 119.867 40.4 120.533 42.1333C122.8 48.2667 120.267 54.4 113.333 58.8L108.267 62.1333L112.133 63.8667C125.2 69.6 128.533 89.7333 118.533 101.867C113.467 107.867 107.067 110.667 98.2667 110.667C83.3333 110.667 73.0667 96.1333 82 87.3333C86 83.3333 93.8667 82.6667 95.3333 86.2667C95.7333 87.6 95.4667 88.8 94.6667 89.0667C91.4667 90.1333 86.6667 95.4667 86 98.8C85.3333 101.6 85.8667 102.933 88.8 105.2C95.7333 110.667 106.267 107.333 112.933 97.4667C119.067 88.2667 115.6 76 105.333 70.4L100.667 68L100.267 71.3333C100 73.3333 100.533 75.7333 101.467 76.8C102.667 78.2667 102.667 79.2 101.6 80.2667C100.667 81.2 99.8667 87.0667 99.7333 94.6667L99.4667 107.333L99.0667 94.8C98.8 87.8667 97.8667 81.3333 97.0667 80.4C96 79.0667 96 78.1333 97.0667 77.0667C98.5333 75.6 99.3333 68 98.1333 68C95.8667 68 90.2667 71.2 86.1333 74.6667L81.3333 78.9333V74.9333C81.3333 69.8667 86.5333 63.4667 93.4667 59.8667C98 57.6 98.6667 56.6667 98.6667 52.8V48.2667L94 49.7333C86.2667 52 74.6667 45.3333 74.6667 38.4C74.6667 32.9333 84.8 28 87.4667 32.2667ZM89.8667 39.2C88.9333 41.6 86 42.1333 84.6667 40C84.2667 39.2 85.0667 38.6667 86.5333 38.6667C88.1333 38.6667 89.3333 38 89.3333 37.0667C89.3333 36.2667 89.6 35.8667 90 36.2667C90.4 36.6667 90.4 38 89.8667 39.2ZM36.6667 39.8667C36.2667 40.6667 34.6667 41.3333 33.2 41.3333C31.7333 41.3333 30.9333 40.6667 31.3333 40C31.8667 39.2 32.6667 38.9333 33.3333 39.3333C34 39.7333 34.9333 39.3333 35.3333 38.5333C35.8667 37.8667 36.5333 37.4667 36.9333 37.8667C37.3333 38.1333 37.2 39.0667 36.6667 39.8667Z" fill="white"/>
<path d="M52.4 43.6C42.8 50 40.6667 53.4667 44.1333 56.9333C45.2 58 45.2 58.6667 44.1333 59.2C43.3333 59.7333 42.6667 61.6 42.6667 63.2C42.6667 66 43.0667 65.8667 48.4 60.8C58.2667 51.2 64 43.6 64 40.4C64 38.6667 63.6 37.3333 62.9333 37.3333C62.4 37.3333 57.7333 40.1333 52.4 43.6Z" fill="white"/>
<path d="M36.2667 90.8C31.3333 100.4 30.9333 103.333 34.8 105.333C39.2 107.733 41.3333 106 41.3333 100.4C41.2 95.8667 41.0667 95.6 39.4667 97.6C37.3333 100.533 36 100.667 36 97.8667C36 96.6667 37.2 95.4667 38.6667 95.0667C40.8 94.5333 41.3333 93.2 41.3333 88.5333C41.3333 85.3333 41.2 82.6667 40.9333 82.6667C40.6667 82.6667 38.5333 86.4 36.2667 90.8Z" fill="white"/>
</svg>
